<mxfile host="app.diagrams.net" agent="Mozilla/5.0 (Macintosh; Intel Mac OS X 10_15_7) AppleWebKit/537.36 (KHTML, like Gecko) Chrome/140.0.0.0 Safari/537.36" version="28.1.2">
  <diagram name="第 1 页" id="6r8zMzmlqbmMT-BcWPC9">
    <mxGraphModel dx="2061" dy="790" grid="1" gridSize="10" guides="1" tooltips="1" connect="1" arrows="1" fold="1" page="1" pageScale="1" pageWidth="827" pageHeight="1169" math="0" shadow="0">
      <root>
        <mxCell id="0" />
        <mxCell id="1" parent="0" />
        <mxCell id="rv1WisEcM2h8ES0b12UB-9" style="edgeStyle=orthogonalEdgeStyle;rounded=0;orthogonalLoop=1;jettySize=auto;html=1;entryX=0;entryY=0.5;entryDx=0;entryDy=0;" edge="1" parent="1" source="rv1WisEcM2h8ES0b12UB-1" target="rv1WisEcM2h8ES0b12UB-2">
          <mxGeometry relative="1" as="geometry" />
        </mxCell>
        <mxCell id="rv1WisEcM2h8ES0b12UB-12" style="edgeStyle=orthogonalEdgeStyle;rounded=0;orthogonalLoop=1;jettySize=auto;html=1;" edge="1" parent="1" source="rv1WisEcM2h8ES0b12UB-1" target="rv1WisEcM2h8ES0b12UB-11">
          <mxGeometry relative="1" as="geometry" />
        </mxCell>
        <mxCell id="rv1WisEcM2h8ES0b12UB-1" value="advisor" style="rounded=1;whiteSpace=wrap;html=1;" vertex="1" parent="1">
          <mxGeometry x="100" y="260" width="120" height="60" as="geometry" />
        </mxCell>
        <mxCell id="rv1WisEcM2h8ES0b12UB-5" style="edgeStyle=orthogonalEdgeStyle;rounded=0;orthogonalLoop=1;jettySize=auto;html=1;" edge="1" parent="1" source="rv1WisEcM2h8ES0b12UB-2" target="rv1WisEcM2h8ES0b12UB-3">
          <mxGeometry relative="1" as="geometry" />
        </mxCell>
        <mxCell id="rv1WisEcM2h8ES0b12UB-2" value="自动化case管理系统" style="rounded=1;whiteSpace=wrap;html=1;" vertex="1" parent="1">
          <mxGeometry x="580" y="260" width="180" height="60" as="geometry" />
        </mxCell>
        <mxCell id="rv1WisEcM2h8ES0b12UB-3" value="测试case库" style="shape=cylinder3;whiteSpace=wrap;html=1;boundedLbl=1;backgroundOutline=1;size=15;" vertex="1" parent="1">
          <mxGeometry x="605" y="470" width="130" height="80" as="geometry" />
        </mxCell>
        <mxCell id="rv1WisEcM2h8ES0b12UB-4" value="场景与子场景库" style="shape=cylinder3;whiteSpace=wrap;html=1;boundedLbl=1;backgroundOutline=1;size=15;" vertex="1" parent="1">
          <mxGeometry x="-10" y="470" width="130" height="80" as="geometry" />
        </mxCell>
        <mxCell id="rv1WisEcM2h8ES0b12UB-6" style="edgeStyle=orthogonalEdgeStyle;rounded=0;orthogonalLoop=1;jettySize=auto;html=1;entryX=0.5;entryY=0;entryDx=0;entryDy=0;entryPerimeter=0;" edge="1" parent="1" source="rv1WisEcM2h8ES0b12UB-1" target="rv1WisEcM2h8ES0b12UB-4">
          <mxGeometry relative="1" as="geometry" />
        </mxCell>
        <mxCell id="rv1WisEcM2h8ES0b12UB-7" value="维护所有自动化测试脚本" style="text;html=1;align=center;verticalAlign=middle;resizable=0;points=[];autosize=1;strokeColor=none;fillColor=none;" vertex="1" parent="1">
          <mxGeometry x="667" y="368" width="160" height="30" as="geometry" />
        </mxCell>
        <mxCell id="rv1WisEcM2h8ES0b12UB-8" value="维护子场景与自动化脚本的关联关系" style="text;html=1;align=center;verticalAlign=middle;resizable=0;points=[];autosize=1;strokeColor=none;fillColor=none;" vertex="1" parent="1">
          <mxGeometry x="-80" y="368" width="220" height="30" as="geometry" />
        </mxCell>
        <mxCell id="rv1WisEcM2h8ES0b12UB-10" value="调用接口或者搜索到相关的自动化任务" style="text;html=1;align=center;verticalAlign=middle;resizable=0;points=[];autosize=1;strokeColor=none;fillColor=none;" vertex="1" parent="1">
          <mxGeometry x="265" y="258" width="230" height="30" as="geometry" />
        </mxCell>
        <mxCell id="rv1WisEcM2h8ES0b12UB-11" value="自动化功能梳理与故障演练任务" style="shape=cylinder3;whiteSpace=wrap;html=1;boundedLbl=1;backgroundOutline=1;size=15;" vertex="1" parent="1">
          <mxGeometry x="200" y="470" width="200" height="80" as="geometry" />
        </mxCell>
        <mxCell id="rv1WisEcM2h8ES0b12UB-13" value="维护子场景下的自动供化任务，每个自动化对应该子场景的case脚本" style="text;html=1;align=center;verticalAlign=middle;resizable=0;points=[];autosize=1;strokeColor=none;fillColor=none;" vertex="1" parent="1">
          <mxGeometry x="170" y="368" width="380" height="30" as="geometry" />
        </mxCell>
        <mxCell id="rv1WisEcM2h8ES0b12UB-16" style="edgeStyle=orthogonalEdgeStyle;rounded=0;orthogonalLoop=1;jettySize=auto;html=1;entryX=0.5;entryY=0;entryDx=0;entryDy=0;" edge="1" parent="1" source="rv1WisEcM2h8ES0b12UB-15" target="rv1WisEcM2h8ES0b12UB-1">
          <mxGeometry relative="1" as="geometry">
            <Array as="points">
              <mxPoint x="-100" y="505" />
              <mxPoint x="-100" y="240" />
              <mxPoint x="160" y="240" />
            </Array>
          </mxGeometry>
        </mxCell>
        <mxCell id="rv1WisEcM2h8ES0b12UB-15" value="" style="shape=image;verticalLabelPosition=bottom;labelBackgroundColor=default;verticalAlign=top;aspect=fixed;imageAspect=0;image=data:image/png,iVBORw0KGgoAAAANSUhEUgAAAGgAAABeCAIAAABAXcZGAAAAAXNSR0IArs4c6QAAAERlWElmTU0AKgAAAAgAAYdpAAQAAAABAAAAGgAAAAAAA6ABAAMAAAABAAEAAKACAAQAAAABAAAAaKADAAQAAAABAAAAXgAAAABRMhY3AAAy9klEQVR4Ae19Z7Bd13XeKfecc+u7r6I9PDRSAAsAkgCbSJEA5FCMJXtESrJFmYmVKHKZjDKZJPaPjJ1xZhxnPLEde5x4HKu4iJRIUbQa1SiJoggWsEoEK0T09gA8vH7r6fm+tc8597wGUsof/8h+B+fusvbaa3177bXLOfdCv/Xdu7UlIY71LC/OYrmInsuNkJ9Larpu5CjzUVIi5IlVDvOWy1WlK5ektXOfKzCK46TxHOnPH71wcbKwfG0Ak2IHCJdKjsIEO11BHBtagnWc5CzDGICSFQl1PUbvJHekDSZT+NL2WI6yKDZ0PYpj1SWMqKBrqlFVpKl8CAbusbYEp6TxpC4kyfhkWT9LZHng0HYq3fLMoBILpG2Fg2055Uq5WCzZtl1gMA3DXLYyOOuGXjCTpoVRQiiNJi1nAlAYgEaSBbSKIAyCHpSL2ou1MIpAEISh57rdbrfVarqum1EpLX4+BJcHToRc3ujSxtD9WrXat2nzpg1jG9esXTuyalWtViuVSo7tmIANuBkyZKGf0ldF5A4mgDUPg1JGYZEptjSSccqKwjBUmi/lBppIAoADbJ1Op9lsXrw4MX52/NSpU8eOH2vMz4Mm1ehtG8/aZGRl4BaQJQnVBu6j60f37tm3a9f1o6OjlWrVcRzTXGhfb9ePibZUd1mVl2s+zUNdJUmacanPjFK1CCRhfUDw7Pj4T3784x89/sOTJ08qhorgUrxyZfqyk4MiYBekno6GIqFe7//Ir/zq++64c3BoyDD0MIwwkGA/OZ7/pKNABwGqYEAgMj09/cSPfvSlB754YWKC6kp4WwUwOZgbxtZdki4xB7hn27Zuv33P7/3+H+BeLBbRBCoiP7H1S3L5p1Oouh93iATrq1QqO3buvH3PnvnZudOnz4Rh8E5EbbXblwIuHUY6/NXwyKp7fu1ffPLf/ObA4KDv++wx1fjPMdJWFC1bSqBLEJcrP0ulAq3I4GcsUBrAS8I733TzzX19tVMnT7bbbWUTl2D2NsBJTQOojY5t+PWP/+tffP8HLMvCgsgAaJfg+k6LOPqJDqBB/yMS+FqnrTUbWmNea8zFjTmtOa83m1q3pWEqjEJdNzX4BLQtxs5ahPX/VRbAB6QM09y27YqhoaETJ443Go1LKwHgCsAgQusrBPAcHB762Mfu3ffeX1DuX9ZJK1C/o2ylKo0rBhaNRjxzUZ+djnHNzWjzczGAA3yBF/sh12mYcxxHc0pGparVB7S+fr1/IB4Y1geG41oN6xq2qaCU0feORFiBCF5v7769KPzsZz49Pj6+AlWS/TazqmPbd939K3v3vTdFbUVuqvdXLEYBzISWhVgUT05oJ4/FJ4+F46fiifMwrqilzCrSwpCU6WgRNOhGNSxwTCO2HaNU1vv79VVrzdGN2qbLtI1btIHhpF3VxKWEeJsyLJL27tuHOfev/tdfdnMrvqXVBLjllKbX17Rbbr39Q3d/GCMUcaZ/vpCOrNjz4qNvRi+/EB96LZo4rzVbMKs4xgXTIVQ6NiBY87NpaU0NZUQxKCI/9LW460ZYfE1c0A8fCawDerWirxk1t16l77rJ2LI1xqKaXCClVP+5pIXdvf8DHzh8+K1vPvIIZKJYywX9tlu4V100WoEaluMjq9b86Z/9xdjYBsw172SELtMCW8Wla91O/OqPw8e/G7z1RozhSYDYrNxxSzdsyY5SlQJAiI2Wo8Wt92CRWBzpfX3W9mvNPe/Tr9gRF0tsdMUdc9rmyp/Abmpy8t996lOnT59alorLkY2yHEmXawkZ/CXWOffe++u33bbH8zwweidd2FNHsVF91W5Fr78SPPi3/iMPBSeOxX5A70aACGiyY0XHASH0nuSxiHFlO8ji3pMlgDtmVEftZF6BcQpGrhscPxq++LR2+rhBV9inYZQk3JbV/VKZmGfr9Tq0fu7ZZ5el46y6cWyUClA29DN05wVZ1o+N/dZv/1vsPQniYkiW5bYwE1bguvGpo8GX7/Mfvi848lYMLGAFxCEXpGHRMO0aQSRpUDTnYEGEFeWDkQR2rMSAbwIrphE/DE8cD146oM9M6cOrNHhDE13+M0sPhbHEwz7yxRdemJqakvYW3BRwyQJYjK7Xxi//8l233PKeOIqwPUgqpZ8LeCxNKK9wfjz80aPe/Z8JXvkx50d4H2VQCgLcoQ+hVD2FD8RzIzLJZx+mNAmylFMRKgSVACQTDoWC5nbpEF5/GYLr/YNatSbGi2o/Q4DixVJpfn4O27Kl1RYCx/KEe7Vau+dj965bu04ymKm6LRMVWVk8q8acKIpxXPHmK8HD93mPfSeemdUMU/KT3SUHmqpL0FJTSmwKySxHiFQbuKsL/BGUKAITWSm8cOf4FQ4gMMxobi489Fo8ecEEdgODaa9Ql3cS1DDDWuLAMwdwOrCoCtdxWRYGasSGuSXYuGnT6LpRnMlkoxQa5cPClNKLjinutKID+/1vfy08cZRui6vECFDhTxmiaMYkVE6ZqM9MJSRxZclclIRkSElIIhySjpBGUGKQiCBi7dJ1/QNPRufGrQ98yLjpVq1YVpgn0PdaUc2pO2tLiMMoxmjdsmXL7MwMyhYdhSbzV0rNT+CFmbSK5SVZv6NA/4Wr0woe/Ub3C58Ljh1BDtQCaEovJBgUQ4InQQyMMtFUcCeBREiHi4EISyRJCw/Es/yElh3D6mgRFyqhbdSL4vDYEfe+z0Tf/zbX1aRBYHnKNItk+VIq2djJjm0YowFxHYAme91ZYE+pulwUaKFUX7NmjazdenTSzPI3dgXsoNMJHr7f/eZXdd/HiS1xlIAhygawolB9xHzV8YykCijarDkVEblwAwNZkLAPErY02UzsRCxWyjgkcVZGGzOz3S/8rT0/W/jwvRoXK6kIjK0QpAWAsG7dKLw83UBizYwjLLY4LBAKtjU0NKy2CitwTbKhunSzFna7/hc/537pCxpQQyHUS0xH4mxKTDJRW0xD6iYGQGtRpqQi5MEqrAUO+JD8pLpITbNipgTVmqCmOKr6jKM+DToK/e6D9/kP/YPudjk+cmRCu/wN+/SRkZFySbAGI3jl1ADo4/JGh2SlUqr19UEKJf7yLFkqf/A43Y7/5fu9f3xQtx0lEKQSJUjBnlvMKcthJKVNGKbyJI3jQ7FKxFCJDEFSyz90eBIny16VNFdHnmO7Dz+g4XTsg/dwkcyFSo8w4b/oA6fctSpOatu5+UFx700OqgossFgExCWOp0t1CzsNXRd1O8H3HvEf+UfNspEhelCaTHZmIiO5qVFKbRKFk5hQMC5B8CaBKCZskS9qwvpEWbkl5PzoiUpW0gBrSF1FK6O9YHlf/ZJeqRXu+ADGLIS6BHSqnaKDvyLoUjGSRhPgIE3qMgw8bcFROMpXYqrkwp0PQp7b737lQc3zEn6sJlExCiqBVAZU1oiQKMKEQiUSjaWYFfPpVPIet5QMnzRshXcqAMkUKe6ESIGIrYv7tYdwTGDeslczsQeXIZHjlEVRDUIBCjxFyTKzyGKLg2o2XKLs6jOiJRExNy0O3nrd+9rD2vR0jD2Z2mYmUEFUAz2htqScGpRHBaPEqfJD1MIn5hYzwwhjCvWyFhO1gGDSjYsZZZQcoEQ/V1vYqB5J+QuC01Pe1x+2V60xtm2XfHWgkXHqRYB1gWAsQWn5hzWXsl80RNTgmoOL5/1vfjU6dpjiJpvzHhicFDIQkS3iExJITn0y/RE3ZPGFHIWmqJtCRxgUZIn1JTjQUARNyU4w6wEuRQoAcspJIkhp4dEjwXcfsYdXa4PDIlDKVtXJ3QHGss85EwMApdINH1YBfzxH6smRMlLCc6kU+MGzT/vPPpOWKOpU3VxuPqqawH3BZWBUEzV2B6gBE+Z/XhSZF2JJktHkgqZY6wI++HhkIikXIrwkB0dVyQUzRpz5EsGDST30nnsKu1oNDxmgDxRbTnbk8xiwsPABnqi0jBHCG0AG1MF9YSBvqIcp4Wx34o3JF3b63QqoFPiJDfGsgNVBqnKgM2MqbwFLCAsNxATwSbU0PDsGe5xl6iZcBnjooY9ekuomjrcVb8iQCYZ6bEwxzpSXJIhgzCLHAhEJOYRqzoSPfKOy/drC2lGswUSUjGs+QsnyaRVfBjg2B0nEm9LjMlA6mhtPHSMv9L974ZknRi7+9uba9sPzgjO6mJREO+09xmEUYkccVgxyBJNpzbMStVSOooKp9w+Z68bsDZus0fXm4KBerLBZrx2505p3Ku6eiDvHNfdMHDcFKaguQdplDI5SApxkT1GUUnYWyJhXYiBBEt141uh8J4r+Fc0aXaUyhZz9ISBIxXSjnWjBogXAoSL0lsEhB7IES8mgQEGS6bfmjz82/vykY754Rf/Y2WZ/F6Vcj0rgsAM8KeKShx2L2kIiBTLFEp88+g31+oB15VXFa26wrt5pbd7CZwuQOkem4rrW0fzj8dzr8fTT8exzsfuSpsESC5qOQ1aqKC2ltww7ZgNQbohUQJPIE2EtnCrH8/+n07w+rl2H7SG8APgoPZQ6YiysR81TDRWfBcApndTbC6DLCcNaYjxh1/cePffU2fakU7Bf2FDZPlbb/dM5LXmdIVM3EqDEd0m7ybBFPBk6OrbEcaVavP6m4q17i9fdaAzzuQF9FUwQvk7UQ45SAzjEekmzrtSGrzTqd0SzB7UL34smH9G81zS9zBbUtN2bvJGjqrJQjSEVY9dzZQIoASBOnI4ULn7ZK19ZMG3aVdIe8V6ElKqe3RcBpzRXHiGjSSI428O64tD80acuHrRxQhjF4yXjwI7+y07ND3TZClujxqyu/H1SM/3gMMZDPojn+eaGjbW7P1q6dZ+5apUYOUdzEGnTzfj8rDaNAepDi9gx9b6yvqovXl3XLJNVY6uuD99m9F9pDN4Ynvn7eP7rmo7zCD5IFru2VWs4i2ROHkopkMcakIOFmtbVI6Mw801v+CNRbZfBTfcy84BiuOi+CDjphkUkkgQwUAPPS3547tlpd75kOBiRZhg+PVbZeXnt9p/MRrZhhOIL6LkVirLJzLGEpDH8u9s1rt5Z/41PFXdcq9tFDn5d73jaSyejF44Ehy/Ek+2o47E98e6aU9AHKvqmIWP3ZvPWrWatSI6xNayvvdPs2xodXRNP/I1uDscx3qBJUIOjIc0S1KAKMoEd3pbCy2NMGpbhnyxMPeKXt+s60FAztDKg5YBI8woQm+jng1iOZCQxYoa/SDvROPP81Ou2bhESyB/HLTN+9PqRq9+aG+7AmLimSKydjp9/mfWTHq9rtNrGNdcO/f5/c0Y30BewWH/hWPDAM94b5yKfB4A8SIFOHJ0yeLphPNvRj05Ej/80+McX9Y/cYO+70rALWFk4enWbcdUfRboRXfhrrdCvR20AgYbEXSkJQZZNRqKT3JBJ2LAw1/1Yt63Zx/yRj8aVrTLkl3mNqlczjbF6PgAjdujCAACwSvBD78Wp1y64s3CihFKMsBSEPxmxn7puSOv6rIRJgh4EFeD3mYRwSRYgcT19x47BP/hjZ2wTMMGaaqYV/9UP3P/8cOel0xHIOVMS+QjTRhDrgQxeFICj6oC3LkR/9Ej3vz/inbiIFgi6bg+aV/+xMfIbejCrUFOy821EsSl1X6gQulzhRk1js2S4B83ZZ/CMRlbyiw1pUV2VzIADC14Ii0xQAAIS0WR35sfTb+AgHEgo/cACspe96Ju7h4+uK5s+nlDQfRA7iiTldGx0HpEXBBu3VH/n95116yXHgPL/87vuQy8CcQOPCjCtBeK0cWiIBvjQi8xo2+pCp2CgW4X4sTeD//Et95VT6EvppULNvOK/6P136WFL02Tpzj5IDE1ZXAZfFoFw7H/Nw9YRM29h/rnYm5bFARQQ2XO3JRmc5GQmyxEtjXLRG0UnG2fPtC+YGtY7tCJFxuGJWaKs//CmobYOPSRb6Uz4CDuy9DAK67Xqxz9Rv3wbUdONk1Px3z3pPnnEh4awL048oATCjPLYBXrzQiS5kngY6ZapvXo+/Mzj3itnogBtgtZZq2/591rxej3iu4K5AK/HK6b/QkicYDJ+2UGSo5fN7k/19tG0qUS7hA+n+sUhs7jFBZKGJqJNHHcD78j8yVm/lZoSygkLIcIRnhs/8a7661v7NJfvyzFLlE5thQ/rndv29t18Gx6jwIPNd7QvP+/vP8xTT17ATP4lScYF8sQAhAYkYsn4wCLc0KLXzgVfeMo9PQUJ2f1G/y5j7T2xMcjWifhS1TLUAGISV8SwZMM/b7TeiEIXkqj2VFFyX4Jcwj3Lz8ZYVk0J2nAbJxpn4enoBuCEpGtCwqNcGWYJ/clrh6arnFvRMgINR+iwhTJXr+q7/Q6r1oeBDk+y/5D/vTdcGpUABO9GUMBVJRmH8NIOOSEwR14qUR5PsjTtuZPB117yvAClhmZWtOE79MqtepQ9lOqhk4xQDoIC4pLslXK0QoPW0difB2s2vjQAowwmDPMlBMQiC+QBRlE05c6OdyZRhoEpgTw46yld9diKolfWlg5u68PTQWrJUl4qlHZcV9x6BcwCfxPz0QPPe00Pfk+ZGWRIeMIwwQ+18EG3KJJG9EXKDDROCCzF3QCOaOSR17yDp7G3Bcy6Ub1MH7w9MzrVdN6poZ+Qmc2zin8iouYZ3gmtO8neRmtLgnj/HnaLgUuKpRqhF3eDB+QT7akZbw4jAL5I8YT0KoYc6IZeb5j601f3nxu2oR8CqoKS8JVrpd03GcOrwA/Zj74aHLoQ2oYJFDD3inmSqXICiNBUhRLERFf0ID+5KBNXt2wBGM914oefp4OAq47NolbfpduXKQmz+wLsslxhhBtWJmpxYviTujuJfZhqP0+4IC521wMuZ4Yko1xKei5E3Kn2dCtwoQRUwj276HDQ1YInYm8OO69cXnOTDRd1hlEZq9cULrsc/LHaaLnxo294lpFgq3pC4MMUQZcmkwT7XC72SRYnAedo1AVQzEdFbC0OnPCOXMAsxSKjerleuirRExCkIe1lpoEjGIGDmoKZMpBCf0/r7lk81kHbCOBHkjRITppYbqimZQSSisBN+YE/1Z11Y64bMKemFGhMWk/MkA67XdCf3dZ3dsSmTgBZaO31GwrrxmAfsIqDZ4Kjk5Fp0sGLqbIN8MGdjUlE8ZU7aNgGLiU3wBIaDF4W4Q5Dm+tqzxyG+YKPHjkjcfVyTcNzqVKk21hFptLyU0wP6xW8Tsm5g4fUsnyhxemxGTc0fyoKuUAhcomikAyCL+ADVj2LyzfAuGiC2tAeU+q838CKIqWBzFBG1eUqXwJXRdjIHBpxfry17pogkMawkVm/3qj1KaKDJ6M21upknlktO19QSHLSuKKBCMxXmdxN8OplogOwS3r5VAAgubDCzqG0xdCrmVC0UkJm40pPg3B4yUxVlC39sHU14I5CbLxRCtjYjOKTRRK2AC5VmzmiaFbECBTECq4buQ2/DdHpsJIrMjlq2edgLqtiJvHPNfSnr+g7udoxMAeDAOenI6u1QgFaYZo8MhFwjUzjUpeSD1lIspNwpaVqNCVkqgiTn0QUMWvB0kw9PjUTzrbJikLD6IwKIwKNmJVaxME58o/wLf3WD/IxtwYzeHAn/od0Ashyq7hlLQ7SqECzkH9u4LeDjowOYAGolDKUmwHJxGUw7UTxkX77qZ31DqiAlqGbNT6lBV0QxufnsWbinADWEqA5L7Aia4moRplSGvCzV0RGSY7Kx1ShNd14qonW2Y5eqGXAibNNUGORIIfIkmChmqb5RtSKQ3xniT0Odko/RbxotOYNjgSwUsiRBYIF6cPA5/m18GFPpKHHG5qhHJ1Gs3LC+LFt/a9vrBS8IMaWuZg8XoO1dH3KJHIlakNAuhoJiCuRcZcBqfDqUYIAKGc0AFdxc8PY48ESQ2w6mo4jFKYj2TAkozVtBugJIc+nFweYWwQHBy6LyyhELhC4PHhi2L1yiIiFJ7xb8s0JsSxkytp0AZliyyLqrDWL5rdvHpnG2YQsWxWpkgd1QSyUShQeq6ikWBniEBKzByOKYT6CuqxOEgQOVWEuCTSdtIRzGOCCIxSCl+QJJYxORis4WApWVaruOuwj5AZYkuldfebpFoLGkqSKIpIEakEo+GCcVUABlGDdCmhwwR7RrdBNhSwCIEp++PTGyvPb+3HShq/uKQI41KLdW7uBPaoDIAgqYLF1AiDQoArb5z+GXBFBA0K4SYuoHNuGXrYJEKlDeJU2QEkQW8augFqCJsjVIk4tI+mGRBbFCaUrBZhErwijdME4lRLOYjy3z2xR4YM7fb+AyBzwUYBCD9kR6KXY+M6Ngyf7jXh2DhTQFUe46+qGiwWOMiXBiEVogDx440UokiGJiRzIquGpimhVzKExCpoatpcVRxusUhP8i7wm1kXpBIp0piG8WM/fsT2GXE7sJPMcGWe1uIpSpPl7MkzVBxVYHJiFqoW4IFMnDU0FZX2oCAX4tRcqwphihbQTRocHSwe215rnzkZ4iwmy6PrWNTh8YlcAHVL3BqPECRkZCXOJC4jKM0gRT5s4t6J2wgQvNcSbh80+uDX2RKy5F7UI50sMPdBUWmXmjYU5eI8ggQZP2wR84Z5UgQ0iBoIF8CXAJTTS92m894mFksXDeGokWjGmGoCG9OLcsyYhq4ZhWIy1Z7bW3/DO41t6VFSLd28y+x2eUIIDvTfzegCpukkTMmCBg4CbGCmokUQmLvUkmTjG8fWbcb5B1xSHHp8iRt1MDOBixBA+sSyRPFeYi8r+t4wjL+YRLBXyy5EefCRK4SbdAlRVRQ29YBYNvIwkEMkHYnIlBkiR06DwkxyYSHyuZj3ZN3dx8izsHckr1ho71phdvHuItkhKCPCBwaji0jtiSwlPmqe0xQhriElSamnTC+P1NeO2y7Ef4PCKvImoeSSO8RIQ+wWBewuBQtErbTO/x4P6NGApHcRleJQ0I/3sKadyWEVYSlLFEmmZAzGlAF2mF8p6Efs5NR9BDfQz4uquklzKyYQlSibS6HGI9e5L1fbB1skQD+ljrWIbH7jGxjZa6Q9XpbwVaiFIHH1C9ARK5NGylJsTgl4+gcYKLojvuMIeHcQjKhpAOH8ibr/V00oMTUry9oF5I+/a0BoW0RhNdqCXYyMpYtsSlnNxOeCWElEw8MQJlmFUjJJFweD4CQq8ApYZ6s4zHTEfwCRHPTw4E/jYsKnp53Xvqfk3JzvTABtGeOd2+5YxqyWvbrJR2hHQwf6QKYCbCCxmJ66A/FmkPkBGoyM1vNumfv3edzt4uwNdGQStcOZF3Tuh85wS+icQyBG5qow1CoYtjJH2mJobclg9DAEcphhln6RPsKMpLw65vllcxDTtHC8HmIV+q8+JsRMFh0T+bJYFGd0L9wh8XYvvfchdAUoQde2lyTcPTRyGHIClv6x9co+zuiyGBAgETcFBnB0dfxqBwGLXSQ6qc/TL7CGwYrb5+M2lsSGezqBXgsbxaPJJvI6cG3+iVU5LapRgKrBSOiDEAwc/6AvsYX4lIwVqKV7CjreEpZgR01QtDWCJYk6phlmzq6W4CHyAHS6AoiKwcCiu3AcyFVjQDjxo/By8nEzPd2e/d3T/ZHMaPGFTN262f+2mklng2ARHaZB34opaElGZYnHKzSVFPD+SAJv5pausu67Dk0IuGCK/5Y1/X2s/Z+KZfxrEvpK+Jpek09NiIAiVkMJLN7HuhfXI6scxgQIzI1KRtNkkO9cXSU6PQCnEJ7SGXi/WBo0KH+ZLECtBXF3qMFYhSAMCidxZSqwhmGk8Pv7ik0cPEHgtLtvxr97g3HNdsWTBH1N2mWzImsSiYDZdIAKMVL40jgTnlvdttX5rX2moBvlYozn5cnj+64W4S4AYMABNMT2sQRnHS4JwbQIlkwkrYCdWE/lGRxvRHX6Fiy+R5EMPkl7uQgoojK6TABKZhyEWhqpZLVZGCv1G4phgUty4EBjqCbFpSKJ8kpkWMQlFcDbSiN37XvvaS6cOgiHqrO7TP3Fb8dd2OwPFGDtNwRccOBYRZ5IpBrQg/cQILpwUAIdfvNL+1HvLl6/iqTqEnpg+NXnk7wvu6zjJhBvDg1/In02diEt/qWykuKzGBwNfIgEDw+sWuuYqo4iHJsQkvwZBs5SCmb2wGDiUcPqDlxcy6EjgdLNoFdeUVhd84qrmBzIS+HrMJKYyFxZRO9s0j3bO/+Uzn339zCEIhzG4tt/4xJ7i776vun2VOR/EHZkdlCUotXBXl2qnG8U4TR3t0z91e/k/3FnatpYHVHiKcWZ64oWDn642vmuaZb46KEpmqGURSKd8H8DGtMCZgZRwyOyXZrsWVNYbFr70h1dUFCwZUMuM3cXASQ8LQ4UC0MHq18B3H+y1tZGBqAJYUcLBsSTkMpXB5Snofi3LfHX++B8/8VevnHkDC1bwGKxod+2y/+Jjtd/7Z+V3DZqzfnzRjbDCwO4CixdcsC+csCBzxo3WVY1P3FD884/2ffw9pdEB2ho64OzMhb9/6n+vnf9qHYKyS2FuUErhzyGpwIIoQDAFUU0LYhqQSzdCN2yGI3p1zCrYOn5JRuwlJ32GYM/okgl7KVFCS/DJyrHsgcrAxuKa091pvOoq3aqwg5SAiQFSo7eliFOuch0UWPTBy5GhHhbswivzR/7wsT//j+/5rRs370INeJ3LVhm/sa/8wV3OgSP+gaP+G+f88w28vshVAA65B0vGttXmDZutPdvs9YMm3sERt8nXVQ9PHPuTJz69y/3+lcMeJg15nQmCU7CIWx32MZ0anx4iB0kCiu9UIqJj/yL7Q8DdmvM6xS3FyqBpWlwaqEkRpCuHHnDUM2dGiHKY0uCAm2UXMK2Wt/RvfOn0T/0w4kulCV4JaqoJQQ1RuhRpHkScGLGagzcBrwBnEVbhzcap//rYn37iunvuuGpvvVyj7eAbsgP6r97ofPgGu+vFM+2o2aXbrBX1etks29g3UT75fRhApnW8zvPHX/rr5x8otV+5a3MDz0Xwq0SQVnTAHkuNSkayINMC3gPgu/DoQ3YLgxl2tdlGX7R5m+VUMLTkrWNRPSEgkRqIjBEWhh5wklxyg674HQEDb1QXHMtZV1+z6cKa19pnqtUyTDxPTbPiXCfOVgrY0YoGK2MMIBlCyABVoWid7U7/yYFPv3T24F077rxizRV9xSo3JgRcLzt6pZihAPjgV3FKRkeDq+21T1w89eihx7/x1mNeOP2HG9v1yMNxKb0bCDB6U7CyCMQBXpIElFykp6hRvsb0zLy9p9C/0baLhumIj6Nq6T+lJVIpX8lYETgIAUuhy2AwLNMqFcuwjiv7Nr914XRQCsXoyEMg47JOkFLNoFmCRR8jFPLMn5JgECgRLMfy/fBrx3704virt47tvmnj7i3Dm1bVhqtOGT/0hRYxgkgP1LQoiMKu151uzhyfPPXymVefOPX8kcYZDON/ORJcW2zCHLBz4KKTVpkEOosshY17ojUHbxbQhN+KZueHorFdTrmvUCjqbBqYoKa6EloCsQC3lS0OdPwjA0wzRsGAlTiVUnnj4Nhls2sPNcftOh+IABeBjI+awFt5EUrHNUM250eIp+2CED8oQlTQt9jJnfPmHjry/R+eeHZjbe3lgxvH+teN1IbrpZpTwIE7FqVes9OcbE2fmTt/fPrEsbmzk+5cCJiK1jWl4M76fEX35V10sAVseM+JPcWAZ3JEKycFc9G5lA6UiINkbqrRKN5aGNhs2yXDwlePTGUppCVNhr1k5G7LWJwghjpZJTE5A+/y2ZVitb9S3z6w9eT5i0HX04u2en2E8zt3WmgmeYbIp4N0zJhbYrzdLMJCKyRBCDKIh0oQXnccvD2B5Ujn5ZnDr04fxVuLJdMqoqdor5A97kZ+J3RdvpeEd9PRgfyNtYoR/vO+5rusNtcWMBMwzA1SKoi5NZlQoSPbT7pOvK8k9c5cZ6Y1HIztrlX6LbuqxqmIl9ASX7o3orEoLAPcIgqoCeSwesDv6ZVh0JXqWP/aK+c2vNQ6XMJmp/frZ71ZIu10csLjV4AI7Tj0+A/bDABKo4NYyBI7gdLyPQxsGHmiFszCjKE27RKV4BSBMODCYz0Kg5JrS96evoaN3R6yFWoUVGRQeCWoLdJGknSkse+Gs1Nuu/wea2CTY1dNu2zgmaysRURQ0LDx5eozD+48F5YhQxZURIBPg19yaqW+/urAVYPvWh33uW089E6qc9GBXpf+REStwogbjz1IhJ7DUCZ0acDw5hNZGCqQxhgqwKIgPC8Ty2XH0G1TLrgdLEzwLQ5IgbGo95nRBwdbo4bHGUcY4k47ZoCnQ+/IXCCOTVYhPXNTng/jYn6yMxduiVZdVyr32aW6mTg4iEKVFa9L3BdQJE3nTBM5EAjiscN1qGOVi+WBan1NfeTqvsvMrha4yfsZcuqAhvCiPnwYe14wBH/E2QpsDBGYG0XLKSpo84EJvBOa4ckYDJkAYbDiJWdenIgkiTcwsG/9hWrntuosVnP0+dhacsXL5bQGXwpDo0cV0xO9xeshJxe4cAum5yvuwPXF/vUOx2kZKziyotkC9dTUOE5T0HMMEKVKCwMW6/hVSYgnVZTBohOgBUyuwL1XrVQbqA1sHdyy1VkXNvEmOhZHtCbwwb8MNeCgckRq6gQyMcnED0JK8cT0fICFaAI1zEQYjzi2UBcqC4hYR6A80M2xgn/P8HyZm0JiRvPIGbHognkY8MmVeDfKhgBCNNpp8red2sWrzZGrSpUBCxt7qxSrpS9EyQXQ47koAMnlJdFlfBw2qnIKApGUI2U3EAUaHb+FWEVr1XrX7Wzvbps+Nz/RmJfDOthMzyWwfazQOUslULJBooshTTKghWUbsaM+zCCmyknJqINfRA16QunCiGt9PJeJ7h1pXWU1XQ/miSqpnjRr2DTnnoWBvUYPK7ng0G3GU+e8VrwxXr27XF9tl+sFp2yYFgwDwhJXCKOoiTKAw8uUCe55zmnDuTzaGy0uNVfhgxsCDuZskyvhWrmvvzawcXD02oEryr4VNDwDNdL2UBXy85wN+82UMxDiWExVBWooUT0jqhFRJKGjXBwxQE1wAKQIfFb63mr3l+uzoQ/fQRNMeYvVcYSqgHx1STLtTpg0UTvvznXrwaobncHLHJhbsU95N4iGJqUi1Eg1wYmWBPbhwpBrWxXgOYeEhWTsB3pmTH2GBU9XccpYlwzWBreNbNlV3xZ3Qq/RxS/0QFkxkKwhsS+ILubDF1sJKUoTAqAJsOD6YZgidSKxLJPVQMadCGF2Xm34nxhp9GNdAhWzFpSgag5V90x01FNkkEo3Os1g8rzbaFj+4LsLq3bggNEp9ltWCcZg8DkDzY2Q8Z4GXfeJBp+RpFnJ5+KhCjU6XXx1Hw906RgzJohQGa6EzdC0nUKMAeuH/fjyw87wSnyf8KnZ11DFqRY1vE+VIiWN5JvMx5UEgEXMKpVWfSrxaYJidMjshtEnh7vX2A3fjTCoFqihUFyEGim4TVZrmu5cMDnhNeeD9sgvWOtvqNQGi+V+rOh1LBlNHPkW1AyziDEgwC8/Ag1EIEm+0SXA4WdX2p1mA/uYHBmqcIrnFIH9OBagEd4ajYsYsPAAeNH1Om0n3OKBudc4HisOTjCwuczjjp4Uo8OgA1/FOmuAPYQA9mkVnvWw52QBiiI30m8suXfX5w0P1rZAAdZcBBm5yRBXqMV6a8abuui1m0FrcF9h7N2V2pBTHrSdPswJQE1cG00SGJPbwtBsNdv4UcAlYTFwkAqWOTl5EbOJ/PQIeVEJuXHmw6sssRnB6KCvHcUlIIZFW3TDumtA+WLjUIBnJaFjlrDootHiDiXECFEOnQgdNGJCLDpDjVmSqRpERVByYOtaTQ8/MtBaE3eZWDxKlbcRpBQLVpLBDT8aaPNTwcyU1+3q7aE7CxuB2oBTG+bCDUuQgq0ZAK7AL3dBwUTXhAs+oBt+SK7V7kCYRWExcEroc+fGfT+AR+uxQkzAoxfj0gjvC2KCjcrARgL47tZ3GuPGT+YOdcOujrejeRhEA4N9QhUxIrYOGZFkQQJTakMwHA7OXhFIKHEc7624t5aaBn4VTFVjVcojqqqEJJMozAeD1HDb0exFd24+8MI+b/hmawwjdMCujVjFftPGCZLD1zeBGtvIrpQbm43x+7Nnz45zwUjfvSAsBQ5LKu306dPNZgM/HEHtREMlJnhBL3ABIBiyWA5gMxQ5fO8ZhMB0l76zVCgenD003WhBT2BnOAYPALiolmGqGPWUpvasTIyIp4xopiSPVjlmBu+vt4YiV+BGPnDhIo4kqkcUaVIJE0KEnyZtzgZz0267G3rG+mDNjfaa7eXqoFMZsov9OFpUqGGXS0QIijK3RNWMX7vdOnPmNObERQ4OBEuB41OSkydPnD17Br+Og9cK0zrUBH0j44sjlgexeAkab5nZVBxkEAKHKJaJZ4mVg1OHTrQnYLZ20TaKVmxxSwC4UAlBJMuk5PwgOVKaRJNSNPDeirvbbuBJV1qC5rKVRxpJLZGvjjT95lzYbHTcwPFLO6LVu4vDl5Wx8qj028W6JbaWbEsxmQpwCjYlg7orNS+cv3D8+HEInILQI1kKHDFoNufxg3PXXHPdkjrgQNNBJ4AHKmPNSGOyiSn7DhO7aeABRX+xvmry8KtzR/HycMG3Tdsy8WK9jZUcLAJIMWRSMCErEuSIxMkdCG0z/V/qa1TxYiPIgRwBknM/Gh0CgaNbx7cNvbjdiJoNv9vuep2ga6wNh641Vl1drq/BQaLNObQPWysdIxSnKYSMqLG7yYK88oES6fpPXv7JzDSeBS8pXs7iQEYDeObpp+6++8P1/v5kbPW4koDYcUePSRTTEiEQH6CAM62CA+yq5dq66dWvT711uD3uer7t2dx1OgUcs2A1iEcE6gkg6wqKyuyUjBAVowgrtl8ZaG0zm0GQCk8ieEuYLnQGYHwdwGv57YbfaMX4qcLAxYuM/V71am3NzmJ9HfehpbpdAmS1Ao7buJPHKQJOWeDdMARkkC6FDUjSeppP7t+P+WHZ3+cyN24Y7WGCmAgOJObm5jBUd+zYGQT4gW6BpUdH0yYhu4IISpfA8cHgsB/HaMX/52Dh2Vi1WF5XXj1kVFvt5ly3iYNcbDBiD9/BwJs0UhPU2JWxKv0NWMqoYLwR6XuczqdGpkx+bQZNYVJCNtqApfB82e9G7Vl/ZtKdmvLmm4HfcV2v4DpXB+v2WaO7qvW1TnXAKWPl0W87QK2sWw4eKcggxQBRW2I0qTTp6YYYtlnw74//8LFvfP3r0mNpt6VUzVZrmaEKKjCD7T/00IM3v/uWtWvXYaAsqgoVoSHGJiHF9yChFJYfrIccHt7BqByetheLdqlWro4NjB6dPPXW7PFznanAdE2/oOOLzxi1eMaFNxYxhDH+sNGnCwBXmnA98n97pFXlioJjE5aFb9LguM5zfc8Nu50QphXgQRV2dqHrR3WveFW8Zrs1tKmI0+NiuVDsKzgV2H0Bj0o5gWIRxZUHbY2LD9oaBV4S4CvQ7RMTE/ffd78yN3EqipKCqbAMcCjg/tsoTE5O/N3ffu4//c7vWhZe/kGdfDNskyOWu0byRyEdHSTCKMPMjJ6VXW3JKja6rVKxhP3Z1taWM7Pjp2bOjnsX8cPcfIsT3w3WfU67ciDJCUSGYFfT3xW0B8cvTvD3UbHLhtnhv7MAUpirASH6FW4NLwGVfHMo7FuvDWwp1EedYhW/p2U5VdMBXmUcJJuwMhMPruDULOXX0DcwdRkseXUSOAQj7k/vv+/zmE8VssBZ5acIEL7lgRM2fGK/f/8Tl1/+rrvu/hB2CwLTgsYAEzhCVz5ZIm/UUMGHeNicwe6w2MNJFB7BtNxOpVgervVfPrJpqjlzsTmFL9ZNe3ONqNXFDw5p/F1pejAxBhzydXz3gtup8pvT6CF+GwrSYm+Er2SHRiV0+mNnWKusNqqri+U+bJ7QuwTLAV5luDMsbmFo4s5gZTjVw76KDiFBbQVbg+Lwt9/9zne+9c1vIa6UETTyN4KwAnBqCBp448z/ylce7h8Y2Ld3n/jIJXaHYcUOQCdCLO59OH7RrZwIAB+xw5yKX1YrOWXXr3TdbqXUrdfqo95axJvdVqPbmMfda3YD/B63ix+Hhwv0tGjUqrvQvACTdKC5hi/LwLVbZc2pa7ApnGrgeZhVsmye12DzBMeg8DJNLLx5iIzBwP0hhycQpyXTrS4YNz04lE3BuPc/sf/BBx/wfC+PmjKRHvWKwJEELodL5snJyS9+4X5w2btnL2BQ83SOBSXhCg14ATQOOgIYADs8D9DNgFtb/sxVYNm+77hOpeq7XuB1eXexNMfXdnzfCzBf8IeVgBpACy09Gob5FqLQxDjG70JhdQgsaMRYu2Lu4QkaegSPQS0ki1IKBGXG5FkuTAx/wAs+hCfu7FmiRoteGlLUov3793/+8/9wbnwcVLyWM0xVfQWLYwNiSJi/4hij/bOf+ZvZ2ZkPfvBu/FIiNIQoC5kiRUiRi7HLSZHvIMPuAuwbsLMNjULA/wLItqMgsB0/DCqCFI6PARiSAI7nhZgJ8FwijopaWDG0ihk7dAToBDhNzoNyJIgXuTEVAzsAh7gFLJkDy+Id1DQ0rjApB6pgjAM1QSxBTX1QQQRMORANvfftb3/rwQceuHD+PDTgLLUooFJSgwX67e+5IU+QFAloyAcK8M2ABHc4EfynK5/85G/i13GhLHJELDLJcQAtauGOwKr8bS5OhwiY5eU8FTl4dYd3oMV8RAMm8TMgWNby8QM8G95idPCbD2LEXIbQQxGFFEQkMSZ450BWGPEwkmAxR7RXnkPEUx3dE1XJx0nMsi5OTHzuc5997Ac/wH9FADrVTE4pRglJCty5CxdWAi5pAMAJBLjxqABVh4dHPvrRjwFB/B8sMGSuBtTaKwefQMd2ADmhEwhxhMlTaC4reJqCr0kyEFwGVOFpsZwaYzeABQhUt/lIi+/WwWDUP/UhJo3jTRJSS5aJrXFNjoARCmmINjt10XCjKuxYZVNYrv7o8ce//OWHxs+eZdVcIFq5kIAmH28DHCdMCWgmCwop/F9ct+/Ze911u0bXr8evDKPTIAcaTRqCbDLhSitZVUSIFAyQeBE+LGOpA+FHlHMqnknwQ1Z1uHN9IuONg01N2YIFkaTPAmTYd3BYIQ1zY0A+mgcToqcCUwwUBf+9lO/jePL8uXMHDx587LEfHDt6FEVSlTcFqJAvuL0T4MTXo5msYfDl0RjVpR1Rcfzhx//7tmy5DL/NvH50DP/bC375tVwqWzZe0KFvxkoEAguGVIIN0xRpXAjAieaodGGcQQ6cSAu8BD4CgIN1CdQKjOSIhxF4VMGHqImozFygK94tx08rRPh5RcxEHv5Ps/lGA3vPM2fO8D80O3ZsdnYW2hAsPFaXB43SxCIeSTIBDqlYo8Vt2LBhecL/n3tJBP4vzcOcJhVUEWwAAAAASUVORK5CYII=;" vertex="1" parent="1">
          <mxGeometry x="-200" y="480" width="55.32" height="50" as="geometry" />
        </mxCell>
        <mxCell id="rv1WisEcM2h8ES0b12UB-17" value="子场景与case的关联关系，与运行时参数，故障演练时判断强弱依赖的提示词" style="text;html=1;align=center;verticalAlign=middle;resizable=0;points=[];autosize=1;strokeColor=none;fillColor=none;" vertex="1" parent="1">
          <mxGeometry x="-320" y="200" width="430" height="30" as="geometry" />
        </mxCell>
      </root>
    </mxGraphModel>
  </diagram>
</mxfile>
